#!OML:ASF C:\Vicon Data\Big\jianyuan-13\jianyuan\Session 1\Capture.male.ASF
:FULLY-SPECIFIED
:DEGREES
70
root -8.420967 17.594882 -19.483702 6.325412 11.795076 0.337199
lowerback -8.938135 0.873386 -0.450570 
upperback 3.012517 1.213974 0.133811 
thorax 8.196956 0.564214 0.587662 
lowerneck -8.124181 -2.897160 2.693132 
upperneck 1.037486 -4.047955 -2.188894 
head 1.607442 -2.059449 -1.302579 
rclavicle 0.000000 0.000000 
rhumerus -28.732474 -8.877996 -86.192136 
rradius 32.774967 
rwrist 26.284580 
rhand -17.262224 -16.416610 
rfingers 0.000000 
rthumb 8.982293 -46.205392 
lclavicle 0.000000 0.000000 
lhumerus -43.014963 32.947718 66.641080 
lradius 24.579208 
lwrist -59.410237 
lhand -19.973181 -0.052493 
lfingers 0.000000 
lthumb 6.365678 29.831822 
rfemur -15.449495 2.174563 25.613560 
rtibia 29.169880 
rfoot -20.324490 -6.441897 
rtoes -24.367035 
lfemur -26.285963 -0.348129 -16.720623 
ltibia 52.695087 
lfoot -13.461883 3.475937 
ltoes -40.149396 
71
root -8.423036 17.591493 -19.438264 6.266047 11.730109 0.386456
lowerback -8.791200 0.964418 -0.511485 
upperback 3.048869 1.345445 0.098077 
thorax 8.148686 0.626514 0.602403 
lowerneck -8.187599 -2.963921 2.835700 
upperneck 1.140578 -4.148323 -2.284769 
head 1.645466 -2.110985 -1.364951 
rclavicle 0.000000 0.000000 
rhumerus -28.480639 -8.498613 -86.397043 
rradius 33.132028 
rwrist 26.043332 
rhand -17.177962 -16.420808 
rfingers 0.000000 
rthumb 9.063648 -46.206067 
lclavicle 0.000000 0.000000 
lhumerus -43.183750 33.168137 66.333375 
lradius 24.460248 
lwrist -59.726174 
lhand -19.980806 -0.180804 
lfingers 0.000000 
lthumb 6.358363 29.703779 
rfemur -15.196868 2.294274 25.626194 
rtibia 29.150290 
rfoot -20.497497 -6.698158 
rtoes -24.956571 
lfemur -26.692790 -0.791120 -16.770263 
ltibia 51.726439 
lfoot -13.458880 3.626581 
ltoes -41.337941 
72
root -8.424121 17.589538 -19.388101 6.154516 11.656653 0.439177
lowerback -8.629055 1.035151 -0.495050 
upperback 3.094013 1.442079 0.038901 
thorax 8.103866 0.676534 0.542861 
lowerneck -8.115739 -2.952848 2.807105 
upperneck 1.127663 -4.131587 -2.211278 
head 1.630633 -2.100686 -1.333830 
rclavicle 0.000000 0.000000 
rhumerus -28.238488 -8.097099 -86.671279 
rradius 33.445022 
rwrist 25.585492 
rhand -17.212241 -16.504025 
rfingers 0.000000 
rthumb 9.030596 -46.290767 
lclavicle 0.000000 0.000000 
lhumerus -43.354414 33.096231 66.184458 
lradius 24.530177 
lwrist -59.580855 
lhand -19.882123 -0.186349 
lfingers 0.000000 
lthumb 6.453656 29.695349 
rfemur -14.832886 2.448403 25.630069 
rtibia 29.069625 
rfoot -20.627878 -6.832450 
rtoes -24.978587 
lfemur -26.979852 -1.203115 -16.796545 
ltibia 50.699227 
lfoot -13.450376 3.519820 
ltoes -40.271760 
73
root -8.421775 17.589946 -19.340952 6.085038 11.670938 0.450629
lowerback -8.512952 1.043556 -0.437338 
upperback 3.132582 1.445451 0.047399 
thorax 8.079067 0.681100 0.517913 
lowerneck -8.087078 -2.977314 2.660854 
upperneck 1.161366 -4.150469 -2.167383 
head 1.639221 -2.109638 -1.295155 
rclavicle 0.000000 0.000000 
rhumerus -27.925027 -7.656604 -86.850914 
rradius 33.631235 
rwrist 25.407115 
rhand -17.305562 -16.423069 
rfingers 0.000000 
rthumb 8.940520 -46.213640 
lclavicle 0.000000 0.000000 
lhumerus -43.594293 33.329121 65.968214 
lradius 24.526612 
lwrist -59.643736 
lhand -19.652575 -0.124505 
lfingers 0.000000 
lthumb 6.675255 29.750293 
rfemur -14.512764 2.381950 25.678795 
rtibia 28.945963 
rfoot -20.730538 -6.886151 
rtoes -25.387766 
lfemur -27.314664 -1.877720 -16.753880 
ltibia 49.591049 
lfoot -13.551333 3.542022 
ltoes -39.866092 
74
root -8.415783 17.589356 -19.286361 6.003710 11.656320 0.545326
lowerback -8.454437 1.072294 -0.463681 
upperback 3.192605 1.490234 0.006546 
thorax 8.109730 0.702568 0.495999 
lowerneck -8.077968 -3.006787 2.711210 
upperneck 1.162509 -4.194515 -2.165688 
head 1.635900 -2.131226 -1.304601 
rclavicle 0.000000 0.000000 
rhumerus -27.648433 -7.198013 -87.108468 
rradius 33.931649 
rwrist 24.917523 
rhand -17.323841 -16.639128 
rfingers 0.000000 
rthumb 8.922865 -46.430473 
lclavicle 0.000000 0.000000 
lhumerus -43.841021 33.500781 65.719443 
lradius 24.548259 
lwrist -59.879309 
lhand -19.691133 -0.078295 
lfingers 0.000000 
lthumb 6.637996 29.797689 
rfemur -14.105446 2.363022 25.616517 
rtibia 28.768995 
rfoot -20.825414 -6.941337 
rtoes -25.539868 
lfemur -27.539380 -2.306861 -16.870938 
ltibia 48.392738 
lfoot -13.465588 3.664271 
ltoes -40.369393 
75
root -8.418955 17.593199 -19.233744 6.030672 11.302675 0.624208
lowerback -8.454117 1.234476 -0.561620 
upperback 3.203983 1.722895 -0.044875 
thorax 8.118282 0.812375 0.532409 
lowerneck -8.058323 -3.034327 2.802804 
upperneck 1.205463 -4.236400 -2.252233 
head 1.642103 -2.153517 -1.349849 
rclavicle 0.000000 0.000000 
rhumerus -27.428885 -6.771796 -87.318426 
rradius 34.247613 
rwrist 24.507591 
rhand -17.332651 -16.798695 
rfingers 0.000000 
rthumb 8.914320 -46.590405 
lclavicle 0.000000 0.000000 
lhumerus -43.946877 33.400963 65.639246 
lradius 24.484842 
lwrist -59.796720 
lhand -19.798366 0.026341 
lfingers 0.000000 
lthumb 6.534467 29.905518 
rfemur -13.849461 2.558565 25.546942 
rtibia 28.610792 
rfoot -20.880461 -6.955368 
rtoes -25.797578 
lfemur -27.795202 -2.465566 -16.941202 
ltibia 47.114705 
lfoot -13.466151 3.667276 
ltoes -39.975092 
76
root -8.418898 17.593986 -19.184749 5.971030 11.359500 0.706913
lowerback -8.325702 1.262594 -0.638642 
upperback 3.246033 1.771329 -0.075934 
thorax 8.087076 0.833199 0.547614 
lowerneck -8.051434 -3.049446 2.769736 
upperneck 1.221531 -4.254731 -2.202011 
head 1.647045 -2.161495 -1.328853 
rclavicle 0.000000 0.000000 
rhumerus -27.167101 -6.542765 -87.458667 
rradius 34.462469 
rwrist 24.423137 
rhand -17.429618 -16.759871 
rfingers 0.000000 
rthumb 8.820792 -46.555517 
lclavicle 0.000000 0.000000 
lhumerus -44.034822 33.367036 65.576710 
lradius 24.480050 
lwrist -59.609631 
lhand -19.765819 -0.002792 
lfingers 0.000000 
lthumb 6.565878 29.875442 
rfemur -13.463953 2.608815 25.502139 
rtibia 28.451832 
rfoot -21.047781 -6.907221 
rtoes -25.078742 
lfemur -28.001405 -2.956499 -16.993080 
ltibia 45.775539 
lfoot -13.376050 3.675663 
ltoes -40.480576 
77
root -8.419161 17.598353 -19.135330 5.914962 11.335195 0.762289
lowerback -8.203803 1.316359 -0.672458 
upperback 3.270049 1.849091 -0.111014 
thorax 8.041285 0.870847 0.538428 
lowerneck -8.083058 -3.091522 2.801428 
upperneck 1.324316 -4.312942 -2.227506 
head 1.683507 -2.190672 -1.347387 
rclavicle 0.000000 0.000000 
rhumerus -26.980443 -6.181614 -87.648120 
rradius 34.788890 
rwrist 24.072855 
rhand -17.497104 -16.639551 
rfingers 0.000000 
rthumb 8.755676 -46.437916 
lclavicle 0.000000 0.000000 
lhumerus -44.218616 33.492617 65.358789 
lradius 24.472025 
lwrist -59.766312 
lhand -19.800514 -0.011583 
lfingers 0.000000 
lthumb 6.532396 29.867671 
rfemur -13.070457 2.695075 25.468631 
rtibia 28.258684 
rfoot -21.213562 -6.824261 
rtoes -24.190674 
lfemur -28.186084 -3.347257 -16.992720 
ltibia 44.402492 
lfoot -13.348162 3.598605 
ltoes -40.102688 
78
root -8.418165 17.597800 -19.087653 5.830267 11.388371 0.763798
lowerback -8.065962 1.311638 -0.652735 
upperback 3.313633 1.840939 -0.126988 
thorax 8.009285 0.868684 0.506297 
lowerneck -8.122334 -3.080531 2.921723 
upperneck 1.367488 -4.306626 -2.344745 
head 1.700593 -2.189743 -1.407430 
rclavicle 0.000000 0.000000 
rhumerus -26.710006 -5.866938 -87.850721 
rradius 35.066669 
rwrist 23.871178 
rhand -17.443358 -16.608034 
rfingers 0.000000 
rthumb 8.807528 -46.404193 
lclavicle 0.000000 0.000000 
lhumerus -44.496748 33.878297 64.934283 
lradius 24.423191 
lwrist -60.180409 
lhand -19.834727 -0.080409 
lfingers 0.000000 
lthumb 6.499409 29.799884 
rfemur -12.673191 2.661310 25.532342 
rtibia 28.016912 
rfoot -21.228562 -6.884872 
rtoes -24.227336 
lfemur -28.346514 -3.690927 -16.969669 
ltibia 43.023742 
lfoot -13.084799 3.571621 
ltoes -40.557004 
79
root -8.417236 17.599494 -19.036964 5.789472 11.385469 0.782134
lowerback -7.982971 1.335816 -0.683284 
upperback 3.332411 1.875478 -0.117145 
thorax 7.979530 0.883962 0.536945 
lowerneck -8.085751 -3.085161 2.781938 
upperneck 1.396072 -4.301281 -2.249833 
head 1.707684 -2.185269 -1.352303 
rclavicle 0.000000 0.000000 
rhumerus -26.516079 -5.564658 -87.985501 
rradius 35.365762 
rwrist 23.686047 
rhand -17.526435 -16.692262 
rfingers 0.000000 
rthumb 8.727343 -46.491828 
lclavicle 0.000000 0.000000 
lhumerus -44.681111 33.889135 64.852824 
lradius 24.451813 
lwrist -60.210183 
lhand -19.850872 0.003244 
lfingers 0.000000 
lthumb 6.483813 29.883993 
rfemur -12.301640 2.656270 25.557405 
rtibia 27.770875 
rfoot -21.293674 -6.919047 
rtoes -24.083778 
lfemur -28.490192 -4.054496 -16.925800 
ltibia 41.598851 
lfoot -12.964327 3.374029 
ltoes -40.134013 
